<svg xmlns="http://www.w3.org/2000/svg" width="27" height="22" fill="none" viewBox="0 0 27 22"><path fill="#0f0f0f" fill-rule="evenodd" d="M1.856 9.47q10.871-4.656 14.499-6.14C23.259.507 24.695.016 25.629 0c.206-.003.666.047.964.284.251.201.32.472.353.662.034.19.075.624.042.963-.374 3.865-1.993 13.245-2.817 17.574-.348 1.832-1.034 2.446-1.699 2.506-1.444.13-2.54-.938-3.938-1.84-2.188-1.41-3.425-2.288-5.549-3.664-2.454-1.59-.863-2.464.536-3.893.366-.374 6.727-6.063 6.85-6.579.016-.064.03-.305-.115-.432s-.36-.083-.515-.049q-.33.074-10.487 6.815-1.487 1.005-2.696.98c-.888-.02-2.595-.494-3.865-.9-1.557-.497-2.794-.76-2.686-1.606q.083-.66 1.85-1.35" clip-rule="evenodd"/></svg>