<svg xmlns="http://www.w3.org/2000/svg" width="175" height="19" fill="none" viewBox="0 0 175 19"><path fill="#d5d5d5" d="M156.893.252h4.358l4.197 7.925h.179l4.197-7.925h4.358l-6.713 11.897v6.506h-3.864v-6.506ZM142.731 18.655V.252h12.4V3.46h-8.509v4.385h7.871v3.208h-7.871v4.394h8.545v3.208ZM139.769.252v18.403h-3.36l-8.007-11.583h-.134v11.583h-3.891V.252h3.414l7.944 11.574h.161V.252ZM121.748 9.453q0 3.01-1.142 5.122-1.132 2.112-3.091 3.226-1.95 1.105-4.385 1.105-2.453 0-4.403-1.114t-3.082-3.226-1.132-5.113q0-3.01 1.132-5.122t3.082-3.217Q110.677 0 113.13 0q2.435 0 4.385 1.114 1.96 1.106 3.091 3.217 1.142 2.112 1.142 5.122m-3.945 0q0-1.95-.584-3.289-.576-1.339-1.627-2.03-1.05-.693-2.462-.692-1.41 0-2.462.691-1.051.693-1.635 2.031-.575 1.34-.575 3.289t.575 3.289q.583 1.339 1.635 2.03 1.052.693 2.462.692 1.412 0 2.462-.691 1.051-.693 1.627-2.031.584-1.34.584-3.289M81.936.252h4.798l5.068 12.364h.216L97.086.252h4.798v18.403H98.11V6.677h-.153l-4.762 11.888h-2.57L85.862 6.632h-.153v12.023h-3.774Z"/><path fill="#d5d5d5" d="M66.143 18.654v-2.803l6.55-6.066a25 25 0 0 0 1.402-1.456q.575-.646.871-1.266.297-.63.297-1.357 0-.809-.368-1.393a2.4 2.4 0 0 0-1.006-.908 3.15 3.15 0 0 0-1.447-.323q-.846 0-1.474.342-.63.341-.97.979-.342.638-.342 1.519h-3.693q0-1.807.818-3.136.817-1.33 2.29-2.058T72.469 0q1.977 0 3.442.7 1.473.693 2.291 1.924t.818 2.821q0 1.042-.413 2.058-.405 1.016-1.447 2.255-1.042 1.232-2.938 2.957l-2.687 2.633v.126h7.728v3.18ZM54.618 18.655h-6.524V.252h6.578q2.776 0 4.78 1.105 2.004 1.096 3.082 3.154Q63.62 6.57 63.62 9.435q0 2.876-1.087 4.942a7.47 7.47 0 0 1-3.1 3.172q-2.013 1.106-4.816 1.106m-2.633-3.334h2.471q1.725 0 2.902-.611 1.185-.62 1.78-1.914.6-1.304.601-3.36 0-2.04-.602-3.334-.593-1.295-1.77-1.905t-2.902-.611h-2.48ZM45.132.252v18.403h-3.36L33.765 7.072h-.135v11.583h-3.89V.252h3.415l7.943 11.574h.162V.252ZM26.792.252v18.403h-3.89V.252ZM0 .252h4.798l5.068 12.364h.216L15.15.252h4.798v18.403h-3.774V6.677h-.153L11.26 18.565H8.69L3.927 6.632h-.153v12.023H0Z"/></svg>