<svg xmlns="http://www.w3.org/2000/svg" width="39" height="40" fill="none" viewBox="0 0 39 40"><path fill="url(#paint0_linear_107_104)" d="M19.5 40C30.27 40 39 31.046 39 20S30.27 0 19.5 0 0 8.954 0 20s8.73 20 19.5 20"/><path fill="#fff" fill-rule="evenodd" d="M8.827 19.789q8.526-3.81 11.372-5.024c5.415-2.31 6.54-2.712 7.274-2.725.161-.003.522.038.755.233.198.164.252.386.278.541.026.156.058.51.033.788-.294 3.162-1.564 10.837-2.21 14.379-.273 1.498-.811 2-1.332 2.05-1.133.107-1.993-.767-3.09-1.505-1.716-1.154-2.685-1.872-4.351-2.998-1.925-1.301-.677-2.016.42-3.185.287-.306 5.276-4.96 5.373-5.383.012-.053.023-.25-.09-.354-.115-.104-.283-.068-.404-.04q-.259.061-8.226 5.576-1.167.822-2.114.801c-.697-.015-2.036-.403-3.032-.735-1.22-.407-2.191-.623-2.107-1.314q.066-.54 1.45-1.105" clip-rule="evenodd"/><defs><linearGradient id="paint0_linear_107_104" x1="19.5" x2="19.5" y1="0" y2="39.703" gradientUnits="userSpaceOnUse"><stop stop-color="#2179fd"/><stop offset="1" stop-color="#66a3ff"/></linearGradient></defs></svg>