<svg width="175" height="19" viewBox="0 0 175 19" fill="none" xmlns="http://www.w3.org/2000/svg">
<path d="M156.893 0.251953H161.251L165.448 8.17734H165.627L169.824 0.251953H174.182L167.469 12.149V18.6547H163.605V12.149L156.893 0.251953Z" fill="#D5D5D5"/>
<path d="M142.731 18.6547V0.251953H155.131V3.45985H146.622V7.84487H154.493V11.0528H146.622V15.4468H155.167V18.6547H142.731Z" fill="#D5D5D5"/>
<path d="M139.769 0.251953V18.6547H136.409L128.402 7.0721H128.268V18.6547H124.377V0.251953H127.791L135.735 11.8255H135.896V0.251953H139.769Z" fill="#D5D5D5"/>
<path d="M121.748 9.45296C121.748 11.4598 121.367 13.167 120.606 14.5748C119.852 15.9826 118.821 17.0579 117.515 17.8007C116.215 18.5375 114.754 18.9059 113.13 18.9059C111.495 18.9059 110.027 18.5345 108.727 17.7917C107.427 17.0489 106.4 15.9736 105.645 14.5658C104.89 13.1581 104.513 11.4538 104.513 9.45296C104.513 7.44615 104.89 5.73887 105.645 4.33111C106.4 2.92335 107.427 1.85105 108.727 1.11423C110.027 0.371409 111.495 0 113.13 0C114.754 0 116.215 0.371409 117.515 1.11423C118.821 1.85105 119.852 2.92335 120.606 4.33111C121.367 5.73887 121.748 7.44615 121.748 9.45296ZM117.803 9.45296C117.803 8.15303 117.608 7.05677 117.219 6.16419C116.835 5.27161 116.293 4.59469 115.592 4.13342C114.892 3.67216 114.071 3.44153 113.13 3.44153C112.19 3.44153 111.369 3.67216 110.668 4.13342C109.967 4.59469 109.422 5.27161 109.033 6.16419C108.649 7.05677 108.458 8.15303 108.458 9.45296C108.458 10.7529 108.649 11.8491 109.033 12.7417C109.422 13.6343 109.967 14.3112 110.668 14.7725C111.369 15.2338 112.19 15.4644 113.13 15.4644C114.071 15.4644 114.892 15.2338 115.592 14.7725C116.293 14.3112 116.835 13.6343 117.219 12.7417C117.608 11.8491 117.803 10.7529 117.803 9.45296Z" fill="#D5D5D5"/>
<path d="M81.9357 0.251953H86.7341L91.802 12.6163H92.0177L97.0856 0.251953H101.884V18.6547H98.11V6.67673H97.9572L93.1948 18.5648H90.6249L85.8624 6.6318H85.7097V18.6547H81.9357V0.251953Z" fill="#D5D5D5"/>
<path d="M66.1425 18.6543V15.8508L72.6931 9.78543C73.2502 9.24629 73.7174 8.76106 74.0948 8.32975C74.4782 7.89843 74.7688 7.47611 74.9665 7.06276C75.1641 6.64343 75.263 6.19115 75.263 5.70592C75.263 5.16678 75.1402 4.70252 74.8946 4.31314C74.649 3.91777 74.3135 3.61525 73.8882 3.40558C73.4628 3.18992 72.9806 3.0821 72.4415 3.0821C71.8784 3.0821 71.3871 3.19592 70.9678 3.42355C70.5485 3.65119 70.225 3.97767 69.9974 4.40299C69.7697 4.82832 69.6559 5.33451 69.6559 5.92158H65.9628C65.9628 4.71749 66.2353 3.67216 66.7805 2.78557C67.3256 1.89898 68.0894 1.21307 69.0718 0.727842C70.0543 0.242614 71.1865 0 72.4684 0C73.7863 0 74.9335 0.233628 75.91 0.700885C76.8924 1.16215 77.6562 1.80313 78.2013 2.62383C78.7464 3.44452 79.019 4.38502 79.019 5.44534C79.019 6.14023 78.8812 6.82614 78.6057 7.50306C78.3361 8.17999 77.8539 8.93179 77.159 9.75847C76.4641 10.5792 75.4846 11.5646 74.2206 12.7148L71.5339 15.3476V15.4734H79.2616V18.6543H66.1425Z" fill="#D5D5D5"/>
<path d="M54.6175 18.6547H48.0939V0.251953H54.6714C56.5225 0.251953 58.1159 0.620367 59.4518 1.3572C60.7877 2.08803 61.815 3.13936 62.5339 4.51118C63.2588 5.88299 63.6212 7.52438 63.6212 9.43534C63.6212 11.3523 63.2588 12.9997 62.5339 14.3775C61.815 15.7553 60.7817 16.8126 59.4338 17.5494C58.092 18.2863 56.4865 18.6547 54.6175 18.6547ZM51.9847 15.321H54.4558C55.6059 15.321 56.5734 15.1173 57.3581 14.7099C58.1489 14.2966 58.7419 13.6586 59.1373 12.796C59.5387 11.9274 59.7393 10.8072 59.7393 9.43534C59.7393 8.0755 59.5387 6.96427 59.1373 6.10165C58.7419 5.23902 58.1519 4.60403 57.3671 4.19668C56.5824 3.78933 55.6149 3.58565 54.4647 3.58565H51.9847V15.321Z" fill="#D5D5D5"/>
<path d="M45.1323 0.251953V18.6547H41.7717L33.7654 7.0721H33.6306V18.6547H29.7398V0.251953H33.1544L41.0978 11.8255H41.2595V0.251953H45.1323Z" fill="#D5D5D5"/>
<path d="M26.7917 0.251953V18.6547H22.9009V0.251953H26.7917Z" fill="#D5D5D5"/>
<path d="M0 0.251953H4.79837L9.8663 12.6163H10.082L15.1499 0.251953H19.9483V18.6547H16.1743V6.67673H16.0215L11.2591 18.5648H8.68917L3.92675 6.6318H3.774V18.6547H0V0.251953Z" fill="#D5D5D5"/>
</svg>
