<svg width="27" height="22" viewBox="0 0 27 22" fill="none" xmlns="http://www.w3.org/2000/svg">
<path fill-rule="evenodd" clip-rule="evenodd" d="M1.85611 9.47086C9.10385 6.36615 13.9368 4.31934 16.355 3.33042C23.2594 0.506852 24.6941 0.0163687 25.6292 0.000172686C25.8349 -0.00338946 26.2947 0.0467251 26.5926 0.284372C26.8441 0.485037 26.9133 0.756106 26.9464 0.946358C26.9795 1.13661 27.0208 1.57001 26.988 1.90866C26.6138 5.7739 24.9949 15.1538 24.1713 19.483C23.8228 21.3148 23.1365 21.929 22.4722 21.9891C21.0284 22.1197 19.9321 21.051 18.5337 20.1497C16.3455 18.7394 15.1094 17.8615 12.9854 16.4853C10.5307 14.8949 12.122 14.0208 13.5209 12.5922C13.887 12.2184 20.2483 6.52943 20.3714 6.01335C20.3868 5.94881 20.4011 5.70822 20.2557 5.58118C20.1103 5.45414 19.8958 5.49758 19.7409 5.53213C19.5215 5.5811 16.0259 7.85279 9.25407 12.3472C8.26184 13.0171 7.36312 13.3435 6.55789 13.3264C5.6702 13.3075 3.96262 12.8329 2.69322 12.4272C1.13624 11.9296 -0.101214 11.6665 0.006541 10.8214C0.0626662 10.3812 0.679189 9.93102 1.85611 9.47086Z" fill="#0F0F0F"/>
</svg>
