<svg width="39" height="40" viewBox="0 0 39 40" fill="none" xmlns="http://www.w3.org/2000/svg">
<path d="M19.5 40C30.2696 40 39 31.0457 39 20C39 8.95431 30.2696 0 19.5 0C8.73045 0 0 8.95431 0 20C0 31.0457 8.73045 40 19.5 40Z" fill="url(#paint0_linear_107_104)"/>
<path fill-rule="evenodd" clip-rule="evenodd" d="M8.82678 19.7889C14.5114 17.2487 18.3021 15.574 20.1987 14.7649C25.6141 12.4547 26.7394 12.0534 27.4728 12.0402C27.6341 12.0373 27.9948 12.0783 28.2284 12.2727C28.4257 12.4369 28.48 12.6587 28.506 12.8143C28.5319 12.97 28.5643 13.3246 28.5386 13.6017C28.2451 16.7641 26.9753 24.4386 26.3293 27.9806C26.056 29.4794 25.5177 29.9819 24.9967 30.0311C23.8643 30.138 23.0044 29.2636 21.9076 28.5262C20.1913 27.3723 19.2217 26.654 17.5558 25.528C15.6306 24.2268 16.8786 23.5116 17.9758 22.3428C18.263 22.0369 23.2524 17.3823 23.3489 16.9601C23.361 16.9072 23.3722 16.7104 23.2582 16.6065C23.1442 16.5025 22.9759 16.5381 22.8545 16.5663C22.6823 16.6064 19.9406 18.4651 14.6292 22.1423C13.851 22.6904 13.1461 22.9574 12.5145 22.9434C11.8183 22.928 10.479 22.5397 9.48335 22.2077C8.26216 21.8006 7.29159 21.5853 7.3761 20.8939C7.42012 20.5337 7.90368 20.1654 8.82678 19.7889Z" fill="white"/>
<defs>
<linearGradient id="paint0_linear_107_104" x1="19.5" y1="0" x2="19.5" y2="39.7033" gradientUnits="userSpaceOnUse">
<stop stop-color="#2179FD"/>
<stop offset="1" stop-color="#66A3FF"/>
</linearGradient>
</defs>
</svg>
